<svg
      width="64"
      height="64"
      viewBox="0 0 64 64"
      xmlns="http://www.w3.org/2000/svg"
      fill="none"
    >
      {/* Background Circle */}
      <circle cx="32" cy="32" r="32" fill="#4A90E2" />
      
      {/* Question Mark */}
      <path
        d="M32 48c-2.21 0-4-1.79-4-4h8c0 2.21-1.79 4-4 4zM32 16c-7.18 0-13 5.82-13 13 0 1.66.29 3.27.81 4.73.61 1.63 1.67 3.02 3.09 4.06 1.41 1.04 3.01 1.63 4.91 1.63s3.5-.59 4.91-1.63c1.42-1.04 2.48-2.43 3.09-4.06.52-1.46.81-3.07.81-4.73 0-7.18-5.82-13-13-13zm0 18c-2.21 0-4-1.79-4-4s1.79-4 4-4 4 1.79 4 4-1.79 4-4 4z"
        fill="#FFFFFF"
      />
    </svg>
