<svg
      width="64"
      height="64"
      viewBox="0 0 64 64"
      fill="none"
      xmlns="http://www.w3.org/2000/svg"
    >
      <circle cx="32" cy="32" r="32" fill="#007396" />
      <path
        d="M38.213,44.55c-.854.472-4.404,1.282-6.385,1.349-.933.029-1.769.056-2.546-.054a9.133,9.133,0,0,1-.658-.129A11.277,11.277,0,0,1,25.5,44.942c-1.243-.548-1.973-1.16-1.973-1.16a3.987,3.987,0,0,0,1.711.9c1.5.406,3.386.627,6.45.253a26.949,26.949,0,0,0,3.539-.643c.422-.092.8-.184,1.143-.273C36.84,43.822,37.955,43.466,38.213,44.55ZM38.8,39.471c.288,1.148-1.164,1.756-2.387,2.053a17.693,17.693,0,0,1-2.983.432,18.091,18.091,0,0,1-4.191-.042,19.048,19.048,0,0,1-2.307-.387,9.84,9.84,0,0,1-1.134-.3,7.936,7.936,0,0,1-1.394-.577,3.9,3.9,0,0,1-.906-.657,1.933,1.933,0,0,1-.253-.3l-.022-.03a2.354,2.354,0,0,1,.2.135,2.8,2.8,0,0,0,.565.3,6.664,6.664,0,0,0,1.092.434c.874.266,2.078.543,3.679.7a33.453,33.453,0,0,0,4.542-.158c1.171-.109,2.241-.339,2.983-.554.615-.174,1.193-.343,1.67-.566C37.92,40.557,38.522,39.1,38.8,39.471Zm-7.324-5.764a1.253,1.253,0,0,0-.372.1c-1.27.552-2.9.842-5.075.781-1.73-.048-3.086-.287-4.172-.513a11.708,11.708,0,0,1-1.776-.55,6.491,6.491,0,0,1-.977-.485,3.551,3.551,0,0,1-.692-.485,1.2,1.2,0,0,1,.124.077,2.126,2.126,0,0,0,.459.249,6.351,6.351,0,0,0,1.129.352,9.424,9.424,0,0,0,2.391.254,8.3,8.3,0,0,0,1.614-.038c.8-.067,1.646-.192,2.329-.461a6.183,6.183,0,0,0,1.623-.831C30.4,33.563,31.057,33.487,31.476,33.707ZM33.229,24.72c-1.073,1.069-2.633,1.854-3.588,2.18-.438.142-.742.2-1.129.361-.212.088-.5.197-.762.308-.646.271-1.314.613-1.892.98a5.149,5.149,0,0,0-1.081,1.048c-.126.137-.231.286-.371.5-.143.223-.283.5-.373.764a5.328,5.328,0,0,0-.275.9c-.08.319-.174.686-.295,1.108-.066.226-.123.459-.214.7a2.81,2.81,0,0,1-.438.862c-.5.621-1.26,1.292-2.054,1.841-.418.291-.874.548-1.366.8-.93.46-1.932.788-2.885,1.079C14.646,36.69,14,36.947,14,36.947a3.557,3.557,0,0,0,2.2.369c1.6-.24,3.5-.927,5.1-2.388a10.054,10.054,0,0,0,1.725-2.078c.355-.591.641-1.268.9-2.029.31-.875.672-1.851,1.3-2.819C26.36,27.1,27.555,26.136,28.939,25.8c.636-.159,1.539-.278,2.553-.274C32.938,25.537,33.646,24.853,33.229,24.72Z"
        fill="#fff"
      />
    </svg>